PathFileType  4	(X/Y/Z) C:\Users\antoi\Documents\MyRepositories\mobilecap\ResultsAnalysis
DataRate	CameraRate	NumFrames	NumMarkers	Units	OrigDataRate	OrigDataStartFrame	OrigNumFrames
100.0	100.0	4	51	mm	100.0	18	143
Frame#	Time	r_knee			r_shank_antsup			r_ankle			r_calc			r_5meta			r_toe			L_knee			L_shank_antsup			L_ankle			L_calc			L_5meta			L_toe			r_sh2			r_sh3			r_sh4			L_sh2			L_sh3			r_thigh1			r_thigh2			r_thigh3			r_thigh4			r_thigh5			L_thigh1			L_thigh2			L_thigh3			L_thigh4			r.ASIS			r.PSIS			L.ASIS			L.PSIS			C7			R_Shoulder			L_Shoulder			R_Sternum			L_Sternum			R_humerus			R_elbow_med			R_elbow_lat			R_forearm			R_wrist_radius			R_wrist_ulna			L_humerus			L_elbow_med			L_elbow_lat			L_forearm			L_wrist_radius			L_wrist_ulna			R_HJC			L_HJC			R_HJC_reg			L_HJC_reg			
		X1	Y1	Z1	X2	Y2	Z2	X3	Y3	Z3	X4	Y4	Z4	X5	Y5	Z5	X6	Y6	Z6	X7	Y7	Z7	X8	Y8	Z8	X9	Y9	Z9	X10	Y10	Z10	X11	Y11	Z11	X12	Y12	Z12	X13	Y13	Z13	X14	Y14	Z14	X15	Y15	Z15	X16	Y16	Z16	X17	Y17	Z17	X18	Y18	Z18	X19	Y19	Z19	X20	Y20	Z20	X21	Y21	Z21	X22	Y22	Z22	X23	Y23	Z23	X24	Y24	Z24	X25	Y25	Z25	X26	Y26	Z26	X27	Y27	Z27	X28	Y28	Z28	X29	Y29	Z29	X30	Y30	Z30	X31	Y31	Z31	X32	Y32	Z32	X33	Y33	Z33	X34	Y34	Z34	X35	Y35	Z35	X36	Y36	Z36	X37	Y37	Z37	X38	Y38	Z38	X39	Y39	Z39	X40	Y40	Z40	X41	Y41	Z41	X42	Y42	Z42	X43	Y43	Z43	X44	Y44	Z44	X45	Y45	Z45	X46	Y46	Z46	X47	Y47	Z47	X48	Y48	Z48	X49	Y49	Z49	X50	Y50	Z50	X51	Y51	Z51	

18	0.17000000	107.38746	498.76095	-61.19801	154.05572	405.83198	-75.55640	94.81307	88.03328	-98.70110	36.31473	58.68966	-153.00686	215.87103	44.47756	-62.87092	249.03118	77.43995	-116.89937	-48.45391	452.05645	-342.12760	-83.88697	363.15033	-328.11905	-390.27226	236.86246	-301.74703	-449.57278	287.13417	-242.42786	-422.42094	117.10308	-338.61694	-371.99778	82.45905	-292.32505	153.98611	293.03467	-84.67667	92.50561	401.41746	-31.89390	85.14850	286.72968	-36.66626	-118.73297	436.43474	-361.11617	-225.48372	377.01184	-360.57998	67.36970	779.39669	-26.86647	109.35507	678.11748	-49.11864	73.30841	632.10958	-13.66336	-30.47187	732.05554	0.71169	17.41432	627.40373	-25.20750	31.25796	702.48841	-352.58877	47.00969	564.51049	-334.53480	-72.64755	686.96126	-385.27384	-59.80200	556.39476	-357.19026	46.97779	949.04841	-69.36586	-164.97179	966.82045	-155.83107	44.88281	923.83755	-322.49714	-157.87194	960.08888	-251.56537	-128.04715	1423.34671	-169.22217	-57.57049	1375.41877	-4.56818	-40.55506	1401.50471	-324.35890	-1.67762	1349.40149	-146.50821	-1.05020	1354.29222	-191.87727	-19.06467	1240.34942	33.74072	-108.27575	1045.86317	-18.39154	-103.26496	1053.08930	48.68473	-52.16674	985.98790	72.32928	-3.44864	821.61063	43.14733	-44.73699	821.63842	77.19765	-12.79998	1264.81287	-394.54218	-83.74721	1064.62606	-357.44450	-68.23259	1080.26927	-435.19427	-16.54178	1025.65252	-451.45522	37.30215	855.14405	-444.91699	2.25284	859.89238	-481.51744	-36.78831	857.32882	-88.19741	-33.41185	839.89995	-276.94215	-29.84601	862.49318	-104.61357	-17.45062	850.73364	-271.66477	
19	0.18000000	112.58900	498.62936	-59.56805	157.77518	404.99307	-73.43940	94.88884	87.92067	-98.63643	36.38528	58.83546	-152.96666	215.93302	44.25469	-62.66579	249.20222	77.05597	-116.75135	-22.43406	454.20916	-340.98048	-57.34538	365.30854	-326.68134	-363.90802	240.37638	-300.02601	-424.86413	288.61135	-240.65924	-392.50867	120.97187	-338.54897	-341.77715	86.84548	-291.92683	156.22528	292.28888	-82.95493	95.54968	401.42517	-30.78583	86.53363	286.82575	-36.06798	-91.85739	438.87422	-359.34697	-198.91557	379.95554	-358.69883	77.49177	780.25435	-25.34886	118.05346	678.15616	-47.64207	81.05521	632.74928	-12.12249	-20.99163	734.56913	2.23082	24.32354	629.62352	-23.09644	49.68534	706.38499	-350.54264	69.24937	568.81950	-332.62768	-53.71222	687.89149	-383.87555	-37.02514	557.68878	-356.00126	58.69181	951.32988	-67.52037	-152.85003	968.92974	-154.50502	57.36655	926.95798	-320.87015	-145.67300	962.01938	-250.01054	-116.34182	1425.78925	-168.15160	-45.88912	1378.33356	-3.61971	-29.20296	1404.07488	-323.44865	9.92605	1352.16825	-145.58689	10.25810	1356.91986	-191.04088	-6.24026	1243.52509	34.44950	-94.59243	1048.46023	-16.71454	-89.11820	1055.76632	50.26339	-37.32059	989.05236	73.68875	12.69611	825.11571	44.57082	-28.72783	824.89915	78.94025	-1.46144	1267.34827	-393.54439	-71.92828	1067.18710	-355.12208	-57.25140	1082.47331	-433.06840	-5.97285	1027.73440	-449.90750	47.77803	857.15290	-443.40452	12.19340	861.76130	-479.47426	-24.59063	859.45582	-86.82299	-20.75946	842.55455	-275.60029	-17.83040	865.35095	-102.76395	-5.26985	853.25798	-269.86102	
20	0.19000000	117.22852	498.54965	-57.98027	160.99451	404.28881	-71.32279	94.98631	87.88739	-98.54908	36.47572	59.03042	-152.93601	215.96681	44.05180	-62.44818	249.38501	76.69959	-116.60041	3.17518	457.11493	-339.66532	-30.86463	367.95431	-325.06554	-336.93390	242.51991	-298.21746	-400.12093	288.08608	-238.96597	-360.52776	123.24267	-338.28769	-309.31543	90.26427	-291.15995	158.13710	291.69389	-81.22559	98.09732	401.49705	-29.67781	87.61269	287.00195	-35.45021	-65.52632	441.62148	-357.55510	-172.46814	382.53625	-356.75166	87.16273	781.09301	-23.81157	126.23990	678.19404	-46.16552	88.29471	633.34375	-10.62092	-12.00354	736.97354	3.38790	31.01376	631.68835	-21.17603	67.86814	710.73064	-348.38264	91.11797	573.67652	-330.56947	-34.91476	689.37940	-382.42258	-14.52751	559.64363	-354.64606	70.28712	953.37556	-65.77374	-140.90582	971.25571	-152.99054	69.60435	930.29174	-319.40762	-133.67800	964.37987	-248.31361	-104.69667	1428.40713	-167.25989	-34.18412	1381.50450	-2.84963	-18.01119	1406.67405	-322.75554	21.41893	1355.05740	-144.86653	21.50820	1359.65711	-190.38318	6.37876	1246.95491	35.14075	-81.10688	1051.33081	-14.99627	-75.25516	1058.75348	51.87813	-22.74452	992.42325	75.05696	28.69984	829.04060	45.99618	-12.78230	828.51422	80.57800	9.83517	1269.88829	-392.62903	-60.36396	1069.74290	-353.12520	-46.17290	1084.68570	-431.15614	4.68853	1029.82518	-448.38077	58.33441	859.18150	-441.79030	22.32284	863.62924	-477.43516	-12.62892	861.49815	-85.62671	-8.51729	845.48004	-274.46735	-6.07311	868.06589	-101.18917	6.60571	856.01036	-268.38026	
21	0.20000000	121.38653	498.52892	-56.46748	163.85825	403.73314	-69.33340	95.11437	87.92804	-98.44333	36.58250	59.26340	-152.90901	215.97566	43.84813	-62.22642	249.57804	76.35473	-116.44973	28.37320	460.66621	-338.17266	-4.42077	370.98469	-323.26435	-309.45733	243.25703	-296.38875	-375.05515	285.73097	-237.30095	-327.15639	123.92799	-337.70353	-275.27803	92.61136	-290.06108	159.83030	291.24020	-79.60137	100.35392	401.62765	-28.57904	88.59789	287.24768	-34.79022	-39.71735	444.53854	-355.78409	-146.09263	384.59928	-354.85990	96.43856	781.90454	-22.25402	133.95988	678.22547	-44.68423	95.07340	633.91931	-9.16701	-3.37272	739.21055	4.22192	37.58665	633.58166	-19.50765	85.79282	715.43070	-346.17627	112.62210	578.98396	-328.41052	-16.27378	691.32818	-380.94045	7.66335	562.15381	-353.17212	81.78861	955.28190	-64.11161	-129.13253	973.80503	-151.36298	81.60778	933.76375	-318.02964	-121.85201	967.12919	-246.56877	-93.14300	1431.17996	-166.55166	-22.45640	1384.89959	-2.24210	-6.92719	1409.29101	-322.24053	32.82001	1358.04509	-144.31454	32.74584	1362.48775	-189.86712	18.78887	1250.60632	35.84561	-67.80738	1054.43914	-13.23077	-61.66201	1062.01663	53.53877	-8.42200	996.06362	76.43065	44.45341	833.28590	47.41814	3.08079	832.42949	82.10343	21.10851	1272.41184	-391.76510	-49.01464	1072.28835	-351.40666	-35.00040	1086.90852	-429.43166	15.47603	1031.93399	-446.85596	68.98015	861.23083	-440.08267	32.65276	865.51639	-475.41915	-0.90557	863.53284	-84.55654	3.36638	848.61967	-273.47861	5.44412	870.68690	-99.84149	18.23805	858.96238	-267.13726	
